<svg width="66" height="64" viewBox="0 0 66 64" fill="none" xmlns="http://www.w3.org/2000/svg">
<rect x="3.90625" y="3" width="58.5" height="58" rx="29" fill="#F95616"/>
<rect x="3.90625" y="3" width="58.5" height="58" rx="29" stroke="#FFD1C0" stroke-width="6"/>
<path fill-rule="evenodd" clip-rule="evenodd" d="M39.4469 33.6815C39.9594 33.1739 40.7905 33.1739 41.303 33.6815L45.2407 37.5816C45.4868 37.8255 45.6251 38.1561 45.6251 38.501C45.6251 38.8458 45.4868 39.1764 45.2405 39.4202L41.303 43.32C40.7904 43.8276 39.9594 43.8276 39.4469 43.32C38.9344 42.8122 38.9344 41.9892 39.4469 41.4815L42.4563 38.5009L39.4469 35.52C38.9344 35.0123 38.9344 34.1892 39.4469 33.6815Z" fill="white"/>
<path fill-rule="evenodd" clip-rule="evenodd" d="M22 25.5012C22 24.7832 22.5876 24.2012 23.3125 24.2012H44.3125C45.0374 24.2012 45.625 24.7832 45.625 25.5012C45.625 26.2191 45.0374 26.8012 44.3125 26.8012H23.3125C22.5876 26.8012 22 26.2191 22 25.5012Z" fill="white"/>
<path fill-rule="evenodd" clip-rule="evenodd" d="M22 38.5012C22 37.7832 22.5876 37.2012 23.3125 37.2012H44.3125C45.0374 37.2012 45.625 37.7832 45.625 38.5012C45.625 39.2192 45.0374 39.8012 44.3125 39.8012H23.3125C22.5876 39.8012 22 39.2192 22 38.5012Z" fill="white"/>
<path fill-rule="evenodd" clip-rule="evenodd" d="M28.1781 20.6816C28.6907 21.1893 28.6906 22.0124 28.178 22.52L25.1686 25.5005L28.1781 28.4816C28.6907 28.9893 28.6906 29.8124 28.178 30.32C27.6655 30.8277 26.8344 30.8277 26.3219 30.32L22.3844 26.4197C22.1383 26.1759 22 25.8452 22 25.5004C22 25.1557 22.1383 24.825 22.3845 24.5812L26.322 20.6815C26.8345 20.1738 27.6656 20.1739 28.1781 20.6816Z" fill="white"/>
</svg>
